HIERARCHY
ROOT Hips
{
	OFFSET 0.000000 0.000000 0.000000
	CHANNELS 6 Xposition Yposition Zposition Xrotation Yrotation Zrotation
	JOINT LeftUpLeg_virtual
	{
		OFFSET 0.000000 0.000000 0.000000
		CHANNELS 3 Xrotation Yrotation Zrotation
		JOINT LeftUpLeg
		{
			OFFSET 11.394100 -6.187798 -0.413800
			CHANNELS 3 Xrotation Yrotation Zrotation
			JOINT LeftLeg
			{
				OFFSET 0.430247 -32.302673 3.732800
				CHANNELS 3 Xrotation Yrotation Zrotation
				JOINT LeftFoot
				{
					OFFSET -0.430247 -48.264931 -6.423300
					CHANNELS 3 Xrotation Yrotation Zrotation
					JOINT LeftToeBase
					{
						OFFSET 4.230900 -16.068199 23.438400
						CHANNELS 3 Xrotation Yrotation Zrotation
						JOINT LeftToe_End
						{
							OFFSET 4.510700 0.695400 19.974600
							CHANNELS 3 Xrotation Yrotation Zrotation
							End Site
							{
								OFFSET 0 0 0
							}
						}
					}
				}
			}
		}
	}
	JOINT RightUpLeg_virtual
	{
		OFFSET 0.000000 0.000000 0.000000
		CHANNELS 3 Xrotation Yrotation Zrotation
		JOINT RightUpLeg
		{
			OFFSET -11.333700 -6.187798 -0.413800
			CHANNELS 3 Xrotation Yrotation Zrotation
			JOINT RightLeg
			{
				OFFSET -0.430392 -32.302628 3.733000
				CHANNELS 3 Xrotation Yrotation Zrotation
				JOINT RightFoot
				{
					OFFSET 0.430392 -48.264973 -6.423500
					CHANNELS 3 Xrotation Yrotation Zrotation
					JOINT RightToeBase
					{
						OFFSET -4.230900 -16.068199 23.438400
						CHANNELS 3 Xrotation Yrotation Zrotation
						JOINT RightToe_End
						{
							OFFSET -4.510700 0.695400 19.974600
							CHANNELS 3 Xrotation Yrotation Zrotation
							End Site
							{
								OFFSET 0 0 0
							}
						}
					}
				}
			}
		}
	}
	JOINT Spine_virtual
	{
		OFFSET 0.000000 0.000000 0.000000
		CHANNELS 3 Xrotation Yrotation Zrotation
		JOINT Spine
		{
			OFFSET -0.002400 12.777504 0.315300
			CHANNELS 3 Xrotation Yrotation Zrotation
			JOINT Spine1
			{
				OFFSET -0.002067 5.816869 0.032633
				CHANNELS 3 Xrotation Yrotation Zrotation
				JOINT Spine1_split
				{
					OFFSET -0.002067 5.816869 0.032633
					CHANNELS 3 Xrotation Yrotation Zrotation
					JOINT Spine2
					{
						OFFSET -0.002067 5.816869 0.032633
						CHANNELS 3 Xrotation Yrotation Zrotation
						JOINT Neck_virtual
						{
							OFFSET 0.000000 0.000000 0.000000
							CHANNELS 3 Xrotation Yrotation Zrotation
							JOINT Neck
							{
								OFFSET -0.003700 21.199493 -0.826900
								CHANNELS 3 Xrotation Yrotation Zrotation
								JOINT Head
								{
									OFFSET 0.000000 20.442200 4.834800
									CHANNELS 3 Xrotation Yrotation Zrotation
									JOINT HeadTop_End
									{
										OFFSET 0.000000 34.668396 4.968400
										CHANNELS 3 Xrotation Yrotation Zrotation
										End Site
										{
											OFFSET 0 0 0
										}
									}
								}
							}
						}
						JOINT LeftShoulder_virtual
						{
							OFFSET 0.000000 0.000000 0.000000
							CHANNELS 3 Xrotation Yrotation Zrotation
							JOINT LeftShoulder
							{
								OFFSET 3.288150 8.794197 -1.372250
								CHANNELS 3 Xrotation Yrotation Zrotation
								JOINT LeftShoulder_split
								{
									OFFSET 3.288150 8.794197 -1.372250
									CHANNELS 3 Xrotation Yrotation Zrotation
									JOINT LeftArm
									{
										OFFSET 11.953299 -2.279007 -0.146200
										CHANNELS 3 Xrotation Yrotation Zrotation
										JOINT LeftForeArm
										{
											OFFSET 18.448900 0.000000 0.000000
											CHANNELS 3 Xrotation Yrotation Zrotation
											JOINT LeftHand
											{
												OFFSET 29.527798 0.000000 0.000000
												CHANNELS 3 Xrotation Yrotation Zrotation
												End Site
												{
													OFFSET 0 0 0
												}
											}
										}
									}
								}
							}
						}
						JOINT RightShoulder_virtual
						{
							OFFSET 0.000000 0.000000 0.000000
							CHANNELS 3 Xrotation Yrotation Zrotation
							JOINT RightShoulder
							{
								OFFSET -3.249400 8.794197 -1.372250
								CHANNELS 3 Xrotation Yrotation Zrotation
								JOINT RightShoulder_split
								{
									OFFSET -3.249400 8.794197 -1.372250
									CHANNELS 3 Xrotation Yrotation Zrotation
									JOINT RightArm
									{
										OFFSET -11.953299 -2.279007 -0.146200
										CHANNELS 3 Xrotation Yrotation Zrotation
										JOINT RightForeArm
										{
											OFFSET -18.448900 0.000000 0.000000
											CHANNELS 3 Xrotation Yrotation Zrotation
											JOINT RightHand
											{
												OFFSET -29.527802 0.000000 0.000000
												CHANNELS 3 Xrotation Yrotation Zrotation
												End Site
												{
													OFFSET 0 0 0
												}
											}
										}
									}
								}
							}
						}
					}
				}
			}
		}
	}
}
MOTION
Frames: 7
Frame Time: 0.03333333
3.636568 103.501907 -6.534285 0.000000 0.000000 0.000000 -2.668577 6.633379 0.096530 -14.979978 12.200248 7.704111 13.901700 -4.114675 4.247019 1.378274 3.608969 -9.101416 1.195147 -3.679058 0.841228 0.000000 0.000000 0.000000 -2.294574 7.153295 0.222291 -11.237921 1.489571 1.299527 11.801223 2.125574 -2.784265 -0.699564 -4.393631 4.477619 4.061480 0.499506 -16.877346 0.000000 0.000000 0.000000 -2.816482 10.585935 -0.390783 2.803207 -4.181589 0.815219 4.174893 -0.964620 0.464998 0.173236 -0.637406 0.082187 0.000000 0.000000 0.000000 2.939647 0.612213 0.784645 -9.721687 6.371018 6.238282 2.385089 -15.222125 -4.553835 0.000000 0.000000 0.000000 2.339712 -0.687357 0.548045 1.422616 -0.261147 -0.839686 0.781359 -1.218841 -2.199725 0.621298 9.519594 -83.295721 12.868635 -24.754308 6.657508 0.000000 0.000000 0.000000 3.067269 -0.551164 0.959849 3.018697 -3.502406 4.837425 -5.536830 0.210095 -1.388569 0.325359 16.028697 75.822743 0.180299 13.226394 2.260196 0.000000 0.000000 0.000000 
3.840485 103.511314 -6.526016 0.000000 0.000000 0.000000 -2.637458 6.412328 0.050518 -14.801320 12.149587 7.486214 13.632419 -3.913913 4.337489 0.750528 3.698605 -8.636878 1.491800 -3.686951 0.760076 0.000000 0.000000 0.000000 -2.343381 7.046746 0.147393 -11.094399 1.221011 1.223279 11.384453 1.944641 -2.712388 -0.992226 -4.298182 3.927541 5.019846 0.506154 -16.805812 0.000000 0.000000 0.000000 -2.653978 10.427079 -0.512061 2.640743 -4.105893 0.910533 4.239445 -0.977976 0.425396 0.206472 -0.644762 0.086116 0.000000 0.000000 0.000000 3.025946 0.604953 0.778540 -9.634898 6.397738 6.240125 2.308340 -15.045763 -4.560352 0.000000 0.000000 0.000000 2.362993 -0.700812 0.511904 1.452690 -0.287262 -0.793058 0.888414 -1.507284 -2.053448 0.576259 9.479002 -83.346920 12.857419 -24.843307 6.664351 0.000000 0.000000 0.000000 3.053312 -0.556459 0.976173 2.945522 -3.714634 4.643544 -5.641732 0.038424 -1.417248 -0.170839 16.375069 75.962270 0.123906 13.991585 2.109266 0.000000 0.000000 0.000000 
4.197981 103.520012 -6.449942 0.000000 0.000000 0.000000 -2.635205 6.160377 -0.031772 -14.522468 12.319930 7.292067 13.728912 -3.779780 4.409154 0.136459 3.586028 -8.480627 2.147890 -3.699091 0.880784 0.000000 0.000000 0.000000 -2.441813 6.605960 0.054726 -11.109239 0.895614 0.980635 10.925008 2.002035 -2.577668 -0.641978 -3.940221 3.936280 4.635073 0.755035 -16.552876 0.000000 0.000000 0.000000 -2.590577 10.260232 -0.661488 2.509098 -3.920346 1.081864 4.282082 -0.985860 0.349011 0.220696 -0.643549 0.075550 0.000000 0.000000 0.000000 3.149210 0.602738 0.719551 -9.638550 6.389371 6.297098 2.205121 -14.793425 -4.422389 0.000000 0.000000 0.000000 2.382666 -0.708515 0.423291 1.444103 -0.346739 -0.606248 1.022984 -1.851348 -1.881670 0.498844 9.560099 -83.480362 12.837897 -24.931657 6.624015 0.000000 0.000000 0.000000 3.058592 -0.563648 0.947088 2.822299 -4.008133 4.325919 -5.653827 -0.214851 -1.345366 -0.849307 16.843115 76.230164 0.123297 14.753473 1.572763 0.000000 0.000000 0.000000 
4.678121 103.544373 -6.310226 0.000000 0.000000 0.000000 -2.678568 5.901455 -0.088793 -14.172374 12.728743 7.094173 14.088414 -3.654894 4.438775 -0.381911 3.304314 -8.520676 2.821491 -3.722178 1.268974 0.000000 0.000000 0.000000 -2.496880 6.015944 -0.012649 -11.000628 0.683210 0.647725 10.423605 2.190824 -2.395990 -0.149362 -3.507402 4.210497 3.417962 1.142963 -16.139928 0.000000 0.000000 0.000000 -2.626050 10.085164 -0.781650 2.432541 -3.677803 1.274014 4.309363 -0.987041 0.265577 0.205069 -0.643480 0.072730 0.000000 0.000000 0.000000 3.257954 0.601730 0.642526 -9.683906 6.362484 6.380838 2.176999 -14.515007 -4.144492 0.000000 0.000000 0.000000 2.381209 -0.711434 0.312449 1.408264 -0.424904 -0.365400 1.149864 -2.183759 -1.707831 0.466852 9.688904 -83.728079 12.817026 -25.015129 6.531061 0.000000 0.000000 0.000000 3.089441 -0.570443 0.896111 2.671743 -4.297387 3.946406 -5.619728 -0.380256 -1.263337 -1.565759 17.190570 76.607757 0.173470 15.412498 0.721225 0.000000 0.000000 0.000000 
5.249568 103.581932 -6.076601 0.000000 0.000000 0.000000 -2.752674 5.678761 -0.089089 -13.792306 13.270462 6.854897 14.468238 -3.468724 4.439240 -0.894910 2.972220 -8.507392 3.318519 -3.730536 1.847027 0.000000 0.000000 0.000000 -2.465462 5.420758 -0.081293 -10.611822 0.553630 0.303673 9.806768 2.236823 -2.196101 -0.026233 -3.291823 4.347274 2.814076 1.468526 -15.696046 0.000000 0.000000 0.000000 -2.711218 9.938293 -0.860179 2.431743 -3.442684 1.426459 4.318008 -0.982432 0.208150 0.183185 -0.637023 0.067392 0.000000 0.000000 0.000000 3.306867 0.598780 0.587049 -9.760739 6.348448 6.473071 2.317003 -14.193237 -3.773972 0.000000 0.000000 0.000000 2.347132 -0.713472 0.224115 1.348922 -0.532100 -0.135015 1.338707 -2.419889 -1.526731 0.524314 9.741946 -84.071999 12.822813 -25.138322 6.392858 0.000000 0.000000 0.000000 3.129808 -0.579049 0.851108 2.533296 -4.476030 3.574774 -5.570675 -0.414117 -1.172148 -2.248318 17.222409 77.052771 0.237504 16.023714 -0.307762 0.000000 0.000000 0.000000 
5.909858 103.642700 -5.764391 0.000000 0.000000 0.000000 -2.796961 5.505485 -0.050530 -13.279041 13.773416 6.511339 14.648560 -3.130856 4.456432 -1.527317 2.739992 -8.123439 3.709507 -3.707227 2.407654 0.000000 0.000000 0.000000 -2.403321 4.989880 -0.151591 -9.961845 0.432380 -0.080385 9.148886 2.059630 -1.957283 -0.347990 -3.348341 4.339885 3.225073 1.717016 -15.539179 0.000000 0.000000 0.000000 -2.753513 9.874428 -0.899002 2.531017 -3.266433 1.506935 4.293123 -0.970481 0.198564 0.155062 -0.574970 0.061530 0.000000 0.000000 0.000000 3.274770 0.594830 0.579336 -9.839766 6.380669 6.565407 2.697949 -13.756718 -3.330593 0.000000 0.000000 0.000000 2.274522 -0.713374 0.196636 1.278542 -0.677485 0.003236 1.607776 -2.523209 -1.339899 0.670195 9.635342 -84.443432 12.897509 -25.378172 6.239467 0.000000 0.000000 0.000000 3.155221 -0.583396 0.839436 2.424416 -4.456660 3.225322 -5.486772 -0.351562 -1.045841 -2.867192 16.829055 77.519191 0.280617 16.708637 -1.361046 0.000000 0.000000 0.000000 
6.662217 103.748947 -5.400827 0.000000 0.000000 0.000000 -2.803852 5.260267 -0.016467 -12.598578 13.980991 6.051670 14.662210 -2.744628 4.539831 -2.136792 2.685252 -7.462927 4.154420 -3.618245 2.773651 0.000000 0.000000 0.000000 -2.318013 4.806424 -0.195488 -9.206982 0.251220 -0.641166 8.626415 1.867456 -1.696428 -0.796407 -3.474014 4.801571 3.747347 2.018418 -16.085558 0.000000 0.000000 0.000000 -2.743267 9.859429 -0.879091 2.737804 -3.159827 1.482900 4.223536 -0.953191 0.250185 0.138088 -0.486328 0.066745 0.000000 0.000000 0.000000 3.161223 0.591998 0.635879 -9.909265 6.464792 6.676948 3.309370 -13.188470 -2.831310 0.000000 0.000000 0.000000 2.166767 -0.709375 0.251856 1.209214 -0.839177 0.052557 1.897920 -2.428231 -1.211974 0.847240 9.332625 -84.785542 13.051055 -25.713750 6.078833 0.000000 0.000000 0.000000 3.137647 -0.582627 0.871452 2.357480 -4.230565 2.916493 -5.381837 -0.242613 -0.909582 -3.457024 16.001899 77.974362 0.293086 17.517781 -2.302758 0.000000 0.000000 0.000000 
